<?xml version="1.0" encoding="UTF-8" standalone="no"?>
<!-- Created with Inkscape (http://www.inkscape.org/) -->

<svg
   xmlns:dc="http://purl.org/dc/elements/1.1/"
   xmlns:cc="http://creativecommons.org/ns#"
   xmlns:rdf="http://www.w3.org/1999/02/22-rdf-syntax-ns#"
   xmlns:svg="http://www.w3.org/2000/svg"
   xmlns="http://www.w3.org/2000/svg"
   xmlns:sodipodi="http://sodipodi.sourceforge.net/DTD/sodipodi-0.dtd"
   xmlns:inkscape="http://www.inkscape.org/namespaces/inkscape"
   width="164"
   height="164"
   id="svg2"
   version="1.1"
   inkscape:version="0.48.4 r"
   sodipodi:docname="orb.svg">
  <defs
     id="defs4">
    <inkscape:path-effect
       effect="envelope"
       id="path-effect3776"
       is_visible="true"
       yy="true"
       xx="true"
       bendpath1="m -62.392494,68.396531 274.287564,0"
       bendpath2="m 211.89507,68.396531 0,237.540009"
       bendpath3="m -62.392494,305.93654 274.287564,0"
       bendpath4="m -62.392494,68.396531 0,237.540009" />
    <inkscape:path-effect
       effect="spiro"
       id="path-effect3774"
       is_visible="true" />
    <inkscape:path-effect
       effect="sketch"
       id="path-effect3772"
       is_visible="true"
       nbiter_approxstrokes="5"
       strokelength="100"
       strokelength_rdm="0.3;1"
       strokeoverlap="0.3"
       strokeoverlap_rdm="0.3;1"
       ends_tolerance="0.1;1"
       parallel_offset="5;1"
       tremble_size="5;1"
       tremble_frequency="1"
       nbtangents="5"
       tgt_places_rdmness="1;1"
       tgtscale="10"
       tgtlength="100"
       tgtlength_rdm="0.3;1" />
    <inkscape:path-effect
       effect="gears"
       id="path-effect3770"
       is_visible="true"
       teeth="10"
       phi="5" />
  </defs>
  <sodipodi:namedview
     id="base"
     pagecolor="#ffffff"
     bordercolor="#666666"
     borderopacity="1.0"
     inkscape:pageopacity="0.0"
     inkscape:pageshadow="2"
     inkscape:zoom="3.959798"
     inkscape:cx="143.3294"
     inkscape:cy="80.467649"
     inkscape:document-units="px"
     inkscape:current-layer="layer1"
     showgrid="false"
     inkscape:window-width="1920"
     inkscape:window-height="996"
     inkscape:window-x="-4"
     inkscape:window-y="-4"
     inkscape:window-maximized="1" />
  <metadata
     id="metadata7">
    <rdf:RDF>
      <cc:Work
         rdf:about="">
        <dc:format>image/svg+xml</dc:format>
        <dc:type
           rdf:resource="http://purl.org/dc/dcmitype/StillImage" />
        <dc:title />
      </cc:Work>
    </rdf:RDF>
  </metadata>
  <g
     inkscape:label="Layer 1"
     inkscape:groupmode="layer"
     id="layer1"
     transform="translate(0,-888.36218)">
    <path
       id="path3864-5"
       d="m 55.690187,913.59198 a 11.421463,11.421463 0 0 0 -9.893489,5.71042 l -30.189593,52.28827 a 11.421463,11.421463 0 0 0 0,11.42086 l 30.189593,52.30207 a 11.421463,11.421463 0 0 0 9.893489,5.7104 l 60.392943,0 a 11.421463,11.421463 0 0 0 9.89349,-5.7104 l 30.18959,-52.30207 a 11.421463,11.421463 0 0 0 0,-11.42086 L 125.97662,919.3024 a 11.421463,11.421463 0 0 0 -9.89349,-5.71042 l -60.392943,0 z"
       style="fill:#000000;fill-opacity:0.25098039;fill-rule:evenodd;stroke:none"
       inkscape:connector-curvature="0" />
    <path
       id="path3049"
       d="m 106.06473,1016.3618 c -16.725458,0 -33.450921,0 -50.176383,0 -8.362732,-14.4846 -16.725459,-28.96935 -25.088195,-43.45401 8.362736,-14.48467 17.98618,-28.96939 25.088198,-43.45406 16.725463,0 33.450926,0 50.17639,0 8.36273,14.48467 16.72545,28.96939 25.08819,43.45406 -8.36274,14.48466 -16.72546,28.96941 -25.0882,43.45401 z"
       style="fill:#feef00;fill-opacity:1;fill-rule:evenodd;stroke:none"
       inkscape:connector-curvature="0"
       sodipodi:nodetypes="ccccccc" />
    <path
       sodipodi:nodetypes="cccccccccccccccsccssccccccccccccc"
       inkscape:connector-curvature="0"
       style="fill:#ffc11c;fill-opacity:1;fill-rule:evenodd;stroke:none"
       d="m 42.300521,931.56244 c -2.521606,1.23756 -9.702882,14.51191 -9.821994,17.18911 l -1.858159,33.12418 c -0.118909,2.67659 5.832559,13.09558 8.234276,14.53442 l 20.260503,30.83695 c 2.402358,1.4391 29.290281,0.3944 31.811345,-0.8443 l 32.664788,-12.7989 c 2.52161,-1.2375 2.22245,-17.61347 2.34155,-20.29066 l 5.92756,-33.97407 c 0.11891,-2.67659 -3.30167,-17.28615 -5.70339,-18.72499 L 97.624347,923.76305 C 95.221985,922.324 77.86883,915.05239 75.34777,916.29098 z m 37.492759,1.28014 c -2.462519,2.67077 -4.409536,4.7539 -2.077009,10.84232 10.081085,-8.11619 16.651424,-7.15284 21.646719,-4.61828 5.96154,3.02482 18.46279,12.24804 18.05122,13.47342 -2.79364,0.96074 -10.49409,0.42154 -15.84304,6.241 4.83215,2.67073 10.22321,7.38071 12.43581,9.01813 1.9542,1.44619 4.71183,4.79166 4.69952,9.1319 -0.032,11.27169 -0.61003,14.62 -2.97786,15.53988 -2.55535,-3.38314 -7.24796,-8.24187 -13.30715,-8.17301 2.03618,4.26132 2.98654,12.31353 1.25923,14.10512 -3.14705,3.58574 -20.075993,12.86034 -22.957158,12.25784 3.75981,-7.0104 5.302347,-8.6251 6.436366,-13.5148 -10.077575,5.9842 -17.01767,4.905 -19.773457,4.4174 -11.627275,-1.2542 -23.250632,-8.49672 -23.95244,-12.50461 9.293475,1.38587 13.885002,0.24121 13.961045,-1.78255 -6.730938,-3.1598 -9.034958,-5.76889 -12.950532,-10.9923 -2.2333,-4.69221 -1.174939,-10.96622 0.934262,-19.12121 2.754608,5.6521 2.96775,5.83801 8.786881,9.20273 -1.739564,-8.75483 -2.560746,-19.44482 2.333959,-23.27941 11.015399,-7.81286 10.148316,-5.99125 23.293634,-10.24357 z"
       id="path3045" />
    <path
       id="path3043"
       d="m 51.164573,915.7291 c -3.397063,0.75609 -13.861861,10.31992 -14.903817,13.64537 l -18.444834,39.23392 c -1.041513,3.32478 2.48585,18.29842 4.840289,20.8666 l 25.87717,34.90261 c 2.355134,2.5688 15.902566,7.7563 19.299317,6.9988 l 44.775902,-5.2352 c 3.39707,-0.756 12.97228,-9.6527 14.01424,-12.9782 l 18.44221,-40.8024 c 1.04152,-3.32479 -2.48585,-16.74163 -4.84029,-19.30985 L 116.57417,916.8255 c -2.35513,-2.56864 -18.12653,-6.42194 -21.523277,-5.66442 z m 41.277486,6.85521 c -3.809645,2.57526 -6.81218,4.57556 -6.1046,12.96281 14.647571,-7.00314 21.715581,-3.23737 27.140421,1.054 5.62195,6.13198 16.81006,20.75505 15.91111,22.16403 -4.08408,-0.0143 -12.70128,-3.71098 -18.97531,4.96807 6.34802,2.53185 11.78031,7.85393 13.30966,14.41994 0.59752,2.56536 1.51583,3.5077 0.74344,8.04672 -1.22332,7.18891 -6.51316,22.26752 -9.62151,22.67312 -1.88158,-5.0592 -5.79261,-12.64918 -12.97761,-14.48164 0.97232,5.99804 -0.61482,16.41464 -3.25953,18.11814 -4.926727,3.5079 -28.058229,9.7976 -31.260874,8.1282 6.803776,-7.6161 9.170529,-9.156 12.156825,-14.9395 -13.92577,4.326 -21.765506,0.7723 -24.858654,-0.713 -13.320984,-5.25802 -24.621572,-18.03771 -24.101995,-23.29484 10.518157,4.68432 16.330516,4.70057 17.101612,2.18228 -6.89217,-6.10123 -8.73722,-10.1086 -11.607086,-17.91054 -1.060258,-6.60184 2.302596,-14.14839 7.540657,-23.72503 1.353317,7.97289 1.54267,8.27394 7.288133,14.34378 0.890848,-11.54913 3.518576,-25.23845 10.594743,-28.50537 15.649813,-6.32623 13.644119,-2.30715 30.980568,-5.49117 z"
       style="fill:#bc7600;fill-opacity:1;fill-rule:evenodd;stroke:none"
       inkscape:connector-curvature="0"
       sodipodi:nodetypes="ccccccccccccccccccssccccccccccccc" />
    <path
       style="fill:#593a00;fill-opacity:1;fill-rule:evenodd;stroke:none"
       d="m 51.245325,907.55275 c -3.987523,-8.8e-4 -7.899623,2.25721 -9.893489,5.71044 l -30.189592,52.28826 c -1.993199,3.45257 -1.993199,7.96829 0,11.42086 l 30.189592,52.30209 c 1.993866,3.4532 5.905966,5.7112 9.893489,5.7104 l 60.392945,0 c 3.98752,0 7.89962,-2.2572 9.89349,-5.7104 l 30.18959,-52.30209 c 1.9932,-3.45257 1.9932,-7.96829 0,-11.42086 l -30.18959,-52.28826 c -1.99387,-3.45323 -5.90597,-5.71127 -9.89349,-5.71044 z m 61.177265,10.05861 c -4.90219,1.92734 -16.49919,3.18117 -19.370245,13.03472 15.111415,-5.40945 26.437885,-0.50527 27.929005,1.77106 0.54671,0.83463 0.38621,1.52611 0.2752,2.32547 -0.17191,1.23798 -2.01871,0.24998 -5.94435,3.41251 6.17353,0.18651 9.98955,1.33135 10.59526,2.38046 4.75948,8.24367 17.41442,27.93208 16.058,29.28145 -9.02034,-2.90489 -15.80702,-9.57438 -21.86112,-5.10674 7.0935,4.49459 14.28308,12.99846 14.12796,19.9401 -0.25084,3.00215 -0.7324,5.12727 -1.21089,6.0269 -9.30533,17.49551 -18.82486,34.96471 -21.14922,30.68501 -0.84369,-6.1159 -2.14956,-14.0417 -9.72837,-17.8744 -0.40711,6.9378 -4.777519,18.1715 -8.159722,19.4156 -6.383861,2.6905 -37.440217,2.6325 -40.605963,-0.027 10.841068,-5.0307 12.364068,-6.8718 16.8227,-12.6349 -19.162999,4.919 -27.108322,-2.3441 -30.197486,-4.7715 -6.836848,-9.35648 -19.971695,-29.48621 -18.080732,-35.22576 10.595888,7.84531 14.988041,12.06488 16.477858,9.44539 -6.18769,-8.52525 -7.534169,-13.79577 -8.799738,-23.21924 1.006919,-6.21894 10.565133,-22.00684 17.640407,-34.41391 -1.842651,12.06498 -2.458542,21.69522 4.196822,24.57546 -1.092356,-8.61622 2.266611,-26.4724 10.994295,-28.35948 5.890217,-0.66719 34.870669,-0.66049 49.990329,-0.66049 z"
       id="path3805-6"
       inkscape:connector-curvature="0"
       sodipodi:nodetypes="cccccccccccccccsscscccscccccccccccccc" />
  </g>
</svg>
