<?xml version="1.0" encoding="UTF-8" standalone="no"?>
<!-- Created with Inkscape (http://www.inkscape.org/) -->

<svg
   xmlns:dc="http://purl.org/dc/elements/1.1/"
   xmlns:cc="http://creativecommons.org/ns#"
   xmlns:rdf="http://www.w3.org/1999/02/22-rdf-syntax-ns#"
   xmlns:svg="http://www.w3.org/2000/svg"
   xmlns="http://www.w3.org/2000/svg"
   xmlns:sodipodi="http://sodipodi.sourceforge.net/DTD/sodipodi-0.dtd"
   xmlns:inkscape="http://www.inkscape.org/namespaces/inkscape"
   width="22"
   height="22"
   id="svg2"
   version="1.1"
   inkscape:version="0.92.3 (2405546, 2018-03-11)"
   sodipodi:docname="small-orb.svg">
  <defs
     id="defs4">
    <inkscape:path-effect
       effect="envelope"
       id="path-effect3776"
       is_visible="true"
       yy="true"
       xx="true"
       bendpath1="M -62.392494,68.396531 H 211.89507"
       bendpath2="M 211.89507,68.396531 V 305.93654"
       bendpath3="M -62.392494,305.93654 H 211.89507"
       bendpath4="M -62.392494,68.396531 V 305.93654" />
    <inkscape:path-effect
       effect="spiro"
       id="path-effect3774"
       is_visible="true" />
    <inkscape:path-effect
       effect="sketch"
       id="path-effect3772"
       is_visible="true"
       nbiter_approxstrokes="5"
       strokelength="100"
       strokelength_rdm="0.3;1"
       strokeoverlap="0.3"
       strokeoverlap_rdm="0.3;1"
       ends_tolerance="0.1;1"
       parallel_offset="5;1"
       tremble_size="5;1"
       tremble_frequency="1"
       nbtangents="5"
       tgt_places_rdmness="1;1"
       tgtscale="10"
       tgtlength="100"
       tgtlength_rdm="0.3;1" />
    <inkscape:path-effect
       effect="gears"
       id="path-effect3770"
       is_visible="true"
       teeth="10"
       phi="5"
       min_radius="5" />
  </defs>
  <sodipodi:namedview
     id="base"
     pagecolor="#000000"
     bordercolor="#666666"
     borderopacity="1.0"
     inkscape:pageopacity="0"
     inkscape:pageshadow="2"
     inkscape:zoom="31.678384"
     inkscape:cx="9.7793807"
     inkscape:cy="10.858901"
     inkscape:document-units="px"
     inkscape:current-layer="layer1"
     showgrid="false"
     inkscape:window-width="1920"
     inkscape:window-height="996"
     inkscape:window-x="-4"
     inkscape:window-y="-4"
     inkscape:window-maximized="1"
     inkscape:measure-start="0,0"
     inkscape:measure-end="0,0"
     inkscape:snap-others="false"
     inkscape:object-nodes="false"
     inkscape:snap-nodes="false" />
  <metadata
     id="metadata7">
    <rdf:RDF>
      <cc:Work
         rdf:about="">
        <dc:format>image/svg+xml</dc:format>
        <dc:type
           rdf:resource="http://purl.org/dc/dcmitype/StillImage" />
        <dc:title></dc:title>
      </cc:Work>
    </rdf:RDF>
  </metadata>
  <g
     inkscape:label="Layer 1"
     inkscape:groupmode="layer"
     id="layer1"
     transform="translate(0,-1030.3622)">
    <path
       sodipodi:type="star"
       style="opacity:1;fill:#000000;fill-opacity:1;fill-rule:evenodd;stroke:none;stroke-width:0.35433072;stroke-linecap:round;stroke-linejoin:round;stroke-miterlimit:4;stroke-dasharray:none;stroke-opacity:1"
       id="path833"
       sodipodi:sides="6"
       sodipodi:cx="11"
       sodipodi:cy="1041.3622"
       sodipodi:r1="11.480134"
       sodipodi:r2="9.9420862"
       sodipodi:arg1="1.0471976"
       sodipodi:arg2="1.5707963"
       inkscape:flatsided="true"
       inkscape:rounded="0"
       inkscape:randomized="0"
       d="m 16.740066,1051.3043 -11.4801336,0 -5.74006656,-9.9421 5.74006746,-9.9421 11.4801337,0 5.740067,9.9421 z" />
    <path
       id="path3049"
       d="m 14.773658,1048.273 c -2.563308,0 -5.1266168,0 -7.6899253,0 -1.2816546,-2.2198 -2.5633083,-4.4397 -3.8449635,-6.6596 1.2816552,-2.2199 2.7565237,-4.4398 3.8449639,-6.6597 2.563309,0 5.1266179,0 7.6899269,0 1.281654,2.2199 2.563306,4.4398 3.844962,6.6597 -1.281656,2.2199 -2.563308,4.4398 -3.844964,6.6596 z"
       style="fill:#feef00;fill-opacity:1;fill-rule:evenodd;stroke:none;stroke-width:0.99999994"
       inkscape:connector-curvature="0"
       sodipodi:nodetypes="ccccccc" />
    <path
       sodipodi:nodetypes="cccccccccccccccsccssccccccccccccc"
       inkscape:connector-curvature="0"
       style="fill:#ffc11c;fill-opacity:1;fill-rule:evenodd;stroke:none;stroke-width:0.99999994"
       d="m 5.0012913,1035.2769 c -0.3864559,0.1897 -1.4870431,2.224 -1.5052979,2.6343 l -0.2847775,5.0766 c -0.018224,0.4102 0.8938856,2.007 1.2619676,2.2275 l 3.1050817,4.726 c 0.3681803,0.2205 4.4889668,0.061 4.8753388,-0.1294 l 5.006136,-1.9615 c 0.386456,-0.1897 0.340608,-2.6994 0.358861,-3.1097 l 0.908445,-5.2068 c 0.01822,-0.4102 -0.506007,-2.6492 -0.874089,-2.8698 l -4.372854,-2.5825 c -0.36818,-0.2206 -3.027689,-1.335 -3.414061,-1.1452 z m 5.7460607,0.1962 c -0.377401,0.4093 -0.675796,0.7285 -0.318318,1.6616 1.545006,-1.2438 2.551961,-1.0961 3.31753,-0.7077 0.913653,0.4635 2.829568,1.8771 2.766491,2.0648 -0.428147,0.1474 -1.608302,0.065 -2.42807,0.9566 0.740565,0.4093 1.566788,1.1312 1.905885,1.382 0.299497,0.2217 0.722126,0.7344 0.720239,1.3996 -0.0049,1.7275 -0.09349,2.2406 -0.456381,2.3816 -0.391627,-0.5185 -1.110806,-1.2632 -2.039425,-1.2525 0.312061,0.653 0.457711,1.8871 0.192986,2.1617 -0.482309,0.5495 -3.076803,1.9709 -3.518364,1.8786 0.57622,-1.0745 0.812627,-1.3219 0.986424,-2.0713 -1.544468,0.9171 -2.6080919,0.7517 -3.0304382,0.677 -1.7819715,-0.1922 -3.5633425,-1.3022 -3.6709002,-1.9165 1.4242983,0.2124 2.127986,0.037 2.1396402,-0.2731 -1.0315693,-0.4843 -1.3846785,-0.8841 -1.9847711,-1.6847 -0.3422708,-0.7191 -0.1800686,-1.6806 0.1431831,-2.9305 0.4221653,0.8663 0.454831,0.8948 1.3466587,1.4104 -0.2666019,-1.3417 -0.3924545,-2.9801 0.3576976,-3.5677 1.6881966,-1.1974 1.5553094,-0.9182 3.5699329,-1.5699 z"
       id="path3045" />
    <path
       id="path3043"
       d="m 6.3597771,1032.8503 c -0.5206266,0.1159 -2.1244394,1.5816 -2.2841273,2.0913 l -2.8268161,6.0129 c -0.1596201,0.5095 0.3809761,2.8043 0.7418124,3.1979 l 3.9658802,5.3492 c 0.3609428,0.3937 2.4371934,1.1887 2.9577723,1.0726 l 6.8622584,-0.8024 c 0.520629,-0.1159 1.988105,-1.4793 2.147794,-1.989 l 2.826413,-6.2533 c 0.159622,-0.5095 -0.380976,-2.5658 -0.741813,-2.9594 l -3.624638,-5.5518 c -0.360943,-0.3936 -2.778034,-0.9842 -3.298611,-0.868 z m 6.3260999,1.0506 c -0.583859,0.3947 -1.044021,0.7013 -0.935578,1.9867 2.244855,-1.0733 3.328083,-0.4962 4.159483,0.1615 0.861608,0.9398 2.576273,3.1808 2.438503,3.3968 -0.625917,0 -1.946572,-0.5687 -2.908116,0.7614 0.972884,0.388 1.805426,1.2037 2.03981,2.21 0.09157,0.3931 0.232313,0.5376 0.113938,1.2332 -0.187483,1.1018 -0.998193,3.4127 -1.474572,3.4749 -0.288367,-0.7754 -0.887763,-1.9387 -1.988921,-2.2195 0.149016,0.9193 -0.09423,2.5157 -0.499549,2.7768 -0.755059,0.5375 -4.3001434,1.5015 -4.7909743,1.2457 1.0427321,-1.1672 1.4054563,-1.4033 1.8631293,-2.2896 -2.134234,0.6629 -3.3357353,0.1184 -3.8097846,-0.1093 -2.0415457,-0.8058 -3.7734498,-2.7644 -3.6938206,-3.5701 1.6119905,0.7179 2.5027803,0.7204 2.6209568,0.3344 -1.0562794,-0.935 -1.3390478,-1.5492 -1.7788773,-2.7449 -0.162493,-1.0118 0.3528909,-2.1683 1.155665,-3.636 0.2074065,1.2219 0.2364263,1.268 1.1169638,2.1982 0.1365295,-1.7699 0.5392495,-3.8679 1.6237278,-4.3686 2.3984571,-0.9696 2.0910691,-0.3536 4.7480161,-0.8416 z"
       style="fill:#bc7600;fill-opacity:1;fill-rule:evenodd;stroke:none;stroke-width:0.99999994"
       inkscape:connector-curvature="0"
       sodipodi:nodetypes="ccccccccccccccccccssccccccccccccc" />
    <path
       style="fill:#492f00;fill-opacity:1;fill-rule:evenodd;stroke:none;stroke-width:0.99999994"
       d="m 6.372153,1031.5972 c -0.6111193,-2e-4 -1.2106794,0.346 -1.5162551,0.8752 l -4.62679278,8.0136 c -0.30547351,0.5292 -0.30547351,1.2211 0,1.7503 l 4.62679278,8.0157 c 0.3055757,0.5292 0.9051358,0.8753 1.5162551,0.8752 h 9.255694 c 0.611119,0 1.210679,-0.346 1.516255,-0.8752 l 4.626793,-8.0157 c 0.305473,-0.5292 0.305473,-1.2211 0,-1.7503 l -4.626793,-8.0136 c -0.305576,-0.5292 -0.905136,-0.8753 -1.516255,-0.8752 z m 9.375897,1.5416 c -0.867409,0.1405 -0.825678,0.061 -1.439856,0.4495 2.083724,0.1385 2.523028,1.4707 2.751554,1.8196 0.08378,0.1279 0.05919,0.2338 0.04218,0.3564 -0.02634,0.1898 -0.309384,0.038 -0.911019,0.523 0.946142,0.028 1.530977,0.204 1.623807,0.3648 0.729428,1.2634 2.668897,4.2808 2.461015,4.4876 -0.930875,-0.8146 -0.684715,-0.8652 -1.81781,-1.1658 1.169236,1.6467 1.094295,2.5532 0.851582,3.4255 -0.147912,0.4737 -0.331186,0.7994 -0.404519,0.9373 -1.426115,2.6813 -3.020519,5.3586 -3.241283,4.7028 0.335139,-0.8986 0.557588,-1.0203 0.17605,-1.6555 -0.809331,1.0851 -2.262354,1.7831 -2.780704,1.9737 -0.978377,0.4124 -5.8748455,0.3214 -6.360021,-0.086 0.810003,-0.1131 0.8305457,-0.1437 1.6299766,-0.7947 -1.408094,-0.039 -3.2063292,-1.5009 -3.6797679,-1.873 -1.0478008,-1.434 -3.0608196,-4.519 -2.7710146,-5.3986 0.5595582,1.1637 0.5940832,1.4233 1.1126853,1.3895 -0.9483122,-1.3066 -0.4580084,-2.0562 0.064047,-3.5004 0.1543183,-0.9532 1.6191899,-3.3728 2.7035313,-5.2743 -0.3017524,0.9009 -0.5316048,1.0608 -0.4985559,2.3925 0.2776777,-1.6302 1.4891279,-2.6832 2.8267143,-2.9724 0.9027221,-0.1022 5.3442039,-0.1012 7.6614099,-0.1012 z"
       id="path3805-6"
       inkscape:connector-curvature="0"
       sodipodi:nodetypes="cccccccccccccccsscscccscccccccccccccc" />
  </g>
</svg>
